<svg fill="none" viewBox="0 0 24 24" xmlns="http://www.w3.org/2000/svg" xmlns:xlink="http://www.w3.org/1999/xlink"><linearGradient id="paint0_linear_8354_19763" gradientUnits="userSpaceOnUse" x1="12" x2="12" y1="5" y2="19"><stop offset="0" stop-color="#fd6700"></stop><stop offset="1" stop-color="#ffce00"></stop></linearGradient><path clip-rule="evenodd" d="m6.29289 5.29289c.39053-.39052 1.02369-.39052 1.41422 0l4.29289 4.2929 4.2929-4.2929c.3905-.39052 1.0237-.39052 1.4142 0 .3905.39053.3905 1.02369 0 1.41422l-5 4.99999c-.3905.3905-1.0237.3905-1.4142 0l-5.00001-4.99999c-.39052-.39053-.39052-1.02369 0-1.41422zm0 7.00001c.39053-.3905 1.02369-.3905 1.41422 0l4.29289 4.2929 4.2929-4.2929c.3905-.3905 1.0237-.3905 1.4142 0s.3905 1.0237 0 1.4142l-5 5c-.3905.3905-1.0237.3905-1.4142 0l-5.00001-5c-.39052-.3905-.39052-1.0237 0-1.4142z" fill="url(#paint0_linear_8354_19763)" fill-rule="evenodd"></path></svg>