<svg width="20" height="24" viewBox="0 0 20 24" fill="none" xmlns="http://www.w3.org/2000/svg">
<path d="M10.0092 0C7.95256 0 6.25227 1.58482 6.06706 3.60312H4.86188C3.61966 3.60312 2.83926 4.61045 2.68778 5.7289L0.516776 21.7586C0.348017 23.0046 1.47962 24 2.69088 24H17.3097C18.59 24 19.6444 22.9449 19.4838 21.7586L17.3128 5.7289C17.1527 4.54677 16.3245 3.60312 15.1387 3.60312H13.9505C13.7653 1.58482 12.0657 0 10.0092 0ZM10.0092 0.800776C11.6415 0.800776 12.9746 2.02374 13.1553 3.60312H6.86227C7.04294 2.02374 8.37684 0.800776 10.0092 0.800776ZM6.83988 7.54453C6.83988 9.29714 8.25263 10.7133 10.0092 10.7133C11.7657 10.7133 13.1777 9.29714 13.1777 7.54453C13.1777 7.01093 13.9682 7.01093 13.9682 7.54453C13.9682 9.73396 12.1886 11.5133 10.0092 11.5133C7.82974 11.5133 6.04929 9.73396 6.04929 7.54453C6.04929 7.01093 6.83988 7.01093 6.83988 7.54453Z" fill="white"/>
</svg>
